<?xml version="1.0" encoding="utf-8"?>
<!-- Generator: Adobe Illustrator 24.0.1, SVG Export Plug-In . SVG Version: 6.00 Build 0)  -->
<svg version="1.1" id="Layer_1" xmlns="http://www.w3.org/2000/svg" xmlns:xlink="http://www.w3.org/1999/xlink" x="0px" y="0px"
	 viewBox="0 0 100 100" style="enable-background:new 0 0 100 100;" xml:space="preserve">
<style type="text/css">
	.st0{fill:#FFFFFF;}
</style>
<title>Iconos</title>
<g>
	<path class="st0" d="M52.7,93.5H15.9c-2.4,0-4.5-1.7-5-4.1c-2.2-11.4-3.8-74,1.3-79.1C15.7,6.8,29.6,6.5,34,6.5h0.1
		c4.2,0,18.3,0.3,21.8,3.8c5,5,3.6,69,1.3,79.6C56.7,92,54.8,93.5,52.7,93.5z M34,9.7c-10.8,0-18,1.5-19.4,2.8
		c-3,3.8-3.4,60.9-0.5,76.2c0.2,0.9,0.9,1.5,1.8,1.5h36.8c0.6,0,1.2-0.4,1.3-1c3.1-13.8,2.7-72.6-0.5-76.7
		c-1.3-1.3-8.6-2.8-19.4-2.8L34,9.7z"/>
	<path class="st0" d="M85.2,93.5H49.7v-3.2h35.4c0.3,0,0.4-0.3,0.5-0.5c3.4-11.5,2.7-42.9-0.2-45.7c-0.7-0.7-5.5-1.8-13.3-1.8h-0.1
		c-7.9,0-12.5,1.1-13.2,1.8l-2.3-2.3C59,39.3,68.1,39,72.1,39h0.1c3,0,13,0.2,15.6,2.8c4.6,4.6,4,38.5,1,49
		C88.4,92.3,86.9,93.5,85.2,93.5z"/>
	<path class="st0" d="M31.6,26.7H35c0.9,0,1.7-0.7,1.7-1.7c0,0,0,0,0,0v-3.4c0-0.9-0.8-1.7-1.7-1.7c0,0,0,0,0,0h-3.4
		c-0.9,0-1.7,0.8-1.7,1.7V25C29.9,26,30.7,26.7,31.6,26.7z"/>
	<path class="st0" d="M19.8,26.7h3.4c0.9,0,1.7-0.7,1.7-1.7c0,0,0,0,0,0v-3.4c0-0.9-0.8-1.7-1.7-1.7c0,0,0,0,0,0h-3.4
		c-0.9,0-1.7,0.8-1.7,1.7V25C18.1,26,18.9,26.7,19.8,26.7z"/>
	<path class="st0" d="M46.8,20h-3.4c-0.9,0-1.7,0.8-1.7,1.7V25c0,0.9,0.8,1.7,1.7,1.7h3.4c0.9,0,1.7-0.8,1.7-1.7v-3.4
		C48.4,20.7,47.7,20,46.8,20z"/>
	<path class="st0" d="M31.6,41.7H35c0.9,0,1.7-0.7,1.7-1.7c0,0,0,0,0,0v-3.4c0-0.9-0.8-1.7-1.7-1.7c0,0,0,0,0,0h-3.4
		c-0.9,0-1.7,0.8-1.7,1.7V40C29.9,41,30.7,41.7,31.6,41.7z"/>
	<path class="st0" d="M19.8,41.7h3.4c0.9,0,1.7-0.7,1.7-1.7c0,0,0,0,0,0v-3.4c0-0.9-0.8-1.7-1.7-1.7c0,0,0,0,0,0h-3.4
		c-0.9,0-1.7,0.8-1.7,1.7V40C18.1,41,18.9,41.7,19.8,41.7z"/>
	<path class="st0" d="M46.8,35h-3.4c-0.9,0-1.7,0.8-1.7,1.7V40c0,0.9,0.8,1.7,1.7,1.7h3.4c0.9,0,1.7-0.8,1.7-1.7v-3.4
		C48.4,35.8,47.7,35,46.8,35z"/>
	<path class="st0" d="M31.6,56.2H35c0.9,0,1.7-0.7,1.7-1.7c0,0,0,0,0,0v-3.4c0-0.9-0.7-1.7-1.7-1.7c0,0,0,0,0,0h-3.4
		c-0.9,0-1.7,0.8-1.7,1.7c0,0,0,0,0,0v3.4C29.9,55.5,30.7,56.2,31.6,56.2z"/>
	<path class="st0" d="M19.8,56.2h3.4c0.9,0,1.7-0.7,1.7-1.7c0,0,0,0,0,0v-3.4c0-0.9-0.7-1.7-1.7-1.7c0,0,0,0,0,0h-3.4
		c-0.9,0-1.7,0.8-1.7,1.7c0,0,0,0,0,0v3.4C18.1,55.5,18.9,56.2,19.8,56.2z"/>
	<path class="st0" d="M46.8,49.5h-3.4c-0.9,0-1.7,0.8-1.7,1.7c0,0,0,0,0,0v3.4c0,0.9,0.8,1.7,1.7,1.7h3.4c0.9,0,1.7-0.8,1.7-1.7
		v-3.4C48.4,50.3,47.7,49.5,46.8,49.5C46.8,49.5,46.8,49.5,46.8,49.5z"/>
	<path class="st0" d="M65.1,56.7h3.4c0.9,0,1.7-0.8,1.7-1.7v-3.3c0-0.9-0.7-1.7-1.7-1.7c0,0,0,0,0,0h-3.4c-0.9,0-1.7,0.8-1.7,1.7
		v3.4C63.5,56,64.2,56.7,65.1,56.7z"/>
	<path class="st0" d="M80.3,50h-3.4c-0.9,0-1.7,0.8-1.7,1.7v3.4c0,0.9,0.8,1.7,1.7,1.7h3.4c0.9,0,1.7-0.8,1.7-1.7v-3.3
		C82,50.8,81.2,50,80.3,50C80.3,50,80.3,50,80.3,50z"/>
	<path class="st0" d="M65.1,71.3h3.4c0.9,0,1.7-0.8,1.7-1.7v-3.4c0-0.9-0.8-1.7-1.7-1.7h-3.4c-0.9,0-1.7,0.8-1.7,1.7v3.4
		C63.5,70.5,64.2,71.3,65.1,71.3z"/>
	<path class="st0" d="M80.3,64.5h-3.4c-0.9,0-1.7,0.8-1.7,1.7v3.4c0,0.9,0.8,1.7,1.7,1.7h3.4c0.9,0,1.7-0.8,1.7-1.7v-3.4
		C82,65.3,81.2,64.5,80.3,64.5C80.3,64.5,80.3,64.5,80.3,64.5z"/>
	<path class="st0" d="M31.6,70.8H35c0.9,0,1.7-0.7,1.7-1.7c0,0,0,0,0,0v-3.4c0-0.9-0.8-1.7-1.7-1.7c0,0,0,0,0,0h-3.4
		c-0.9,0-1.7,0.8-1.7,1.7v3.4C29.9,70,30.7,70.7,31.6,70.8C31.6,70.8,31.6,70.8,31.6,70.8z"/>
	<path class="st0" d="M30.3,91.9h5.9c0.9,0,1.7-0.8,1.7-1.7v-9.8c0-0.9-0.8-1.7-1.7-1.7h-5.9c-0.9,0-1.6,0.8-1.6,1.7v9.8
		C28.7,91.1,29.4,91.9,30.3,91.9z"/>
	<path class="st0" d="M70,91.9h5.9c0.9,0,1.7-0.8,1.7-1.7v-9.8c0-0.9-0.8-1.7-1.7-1.7H70c-0.9,0-1.7,0.8-1.7,1.7v9.8
		C68.3,91.1,69,91.9,70,91.9z"/>
	<path class="st0" d="M19.8,70.8h3.4c0.9,0,1.7-0.7,1.7-1.7c0,0,0,0,0,0v-3.4c0-0.9-0.8-1.7-1.7-1.7c0,0,0,0,0,0h-3.4
		c-0.9,0-1.7,0.8-1.7,1.7v3.4C18.1,70,18.9,70.7,19.8,70.8C19.8,70.8,19.8,70.8,19.8,70.8z"/>
	<path class="st0" d="M46.8,64h-3.4c-0.9,0-1.7,0.8-1.7,1.7v3.4c0,0.9,0.7,1.7,1.7,1.7c0,0,0,0,0,0h3.4c0.9,0,1.7-0.8,1.7-1.7
		c0,0,0,0,0,0v-3.4C48.4,64.8,47.7,64,46.8,64L46.8,64z"/>
</g>
</svg>
