<?xml version="1.0" encoding="utf-8"?>
<!-- Generator: Adobe Illustrator 24.0.1, SVG Export Plug-In . SVG Version: 6.00 Build 0)  -->
<svg version="1.1" id="Layer_1" xmlns="http://www.w3.org/2000/svg" xmlns:xlink="http://www.w3.org/1999/xlink" x="0px" y="0px"
	 viewBox="0 0 89.3 90.6" style="enable-background:new 0 0 89.3 90.6;" xml:space="preserve">
<style type="text/css">
	.st0{fill:#00000;}
</style>
<title>custom-projects</title>
<path class="st0" d="M86.8,38.4h-8.6l2.3-25.9c2.9-0.6,5.1-3.1,5.1-6.2c0,0,0,0,0,0c0-3.5-2.8-6.3-6.3-6.3c-3.3,0-6,2.6-6.3,5.9
	l-35.9,14c-1-2.1-3.2-3.5-5.6-3.5c-3.5,0-6.3,2.8-6.3,6.3c0,1.9,0.9,3.7,2.3,4.8l-9.7,13.9c-1.6-0.7-3.3-1.1-5.1-1.1
	C5.6,40.3,0,45.9,0,52.9s5.6,12.6,12.6,12.6c2.5,0,4.9-0.8,6.9-2.1l23.6,19c-0.2,0.6-0.3,1.2-0.3,1.9c0,3.5,2.8,6.3,6.3,6.3
	c0,0,0,0,0,0c3.5,0,6.3-2.8,6.3-6.3c0-1.4-0.5-2.7-1.2-3.7L69,56h6.5v3.8h-3.8c0,0,0,0,0,0c-0.7,0-1.2,0.6-1.2,1.2v1.3H83V61
	c0-0.7-0.6-1.2-1.2-1.2H78V56h8.8c1.4,0,2.5-1.1,2.5-2.5V40.9C89.3,39.5,88.2,38.4,86.8,38.4z M79.3,2.5c2.1,0,3.8,1.7,3.8,3.8
	s-1.7,3.8-3.8,3.8s-3.8-1.7-3.8-3.8S77.2,2.5,79.3,2.5z M73.4,8.4c0.7,2,2.5,3.6,4.6,4l-2.3,25.9h-9c-1.3,0-2.4,1-2.5,2.3l-27-15.3
	c0.4-0.8,0.7-1.8,0.7-2.8c0,0,0,0,0,0c0-0.1,0-0.3,0-0.4L73.4,8.4z M31.5,18.9c2.1,0,3.8,1.7,3.8,3.8c0,2.1-1.7,3.8-3.8,3.8
	c-2.1,0-3.8-1.7-3.8-3.8C27.7,20.6,29.4,18.9,31.5,18.9z M29.6,28.7c0.6,0.2,1.2,0.3,1.8,0.3c1.6,0,3-0.6,4.1-1.5l28.6,16.2v6.8
	l-39,2.7c0-0.1,0-0.2,0-0.4c0-4.2-2.1-8-5.3-10.2L29.6,28.7z M2.5,52.9c0-5.6,4.5-10.1,10.1-10.1c5.6,0,10.1,4.5,10.1,10.1
	s-4.5,10.1-10.1,10.1C7,62.9,2.5,58.4,2.5,52.9z M21.5,61.7c1.6-1.6,2.8-3.7,3.3-6L64.1,53v0.5c0,1.2,0.8,2.2,2,2.5L52.3,78.9
	c-0.9-0.5-2-0.9-3.2-0.9c-1.9,0-3.6,0.8-4.7,2.2L21.5,61.7z M86.8,53.5H66.7V40.9h20.1V53.5z"/>
</svg>
