<?xml version="1.0" encoding="utf-8"?>
<!-- Generator: Adobe Illustrator 24.2.0, SVG Export Plug-In . SVG Version: 6.00 Build 0)  -->
<svg version="1.1" id="Capa_1" xmlns="http://www.w3.org/2000/svg" xmlns:xlink="http://www.w3.org/1999/xlink" x="0px" y="0px"
	 viewBox="0 0 29.7 29.7" style="enable-background:new 0 0 29.7 29.7;" xml:space="preserve">
<style type="text/css">
	.st0{fill:#9BBE43;}
</style>
<g id="Capa_2_1_">
	<g id="Capa_5">
		<path class="st0" d="M25.4,4.3C22.6,1.6,18.8,0,14.9,0l0,0C6.7,0,0,6.6,0,14.8s6.6,14.9,14.8,14.9s14.9-6.6,14.9-14.8
			C29.7,10.9,28.2,7.1,25.4,4.3z M11.4,5.5l1,1.4c0.2,0.3,0.2,0.8,0,1.1L12,8.6c-0.1,0.1-0.2,0.2-0.4,0.2L11,8.7
			c-1-0.1-1.9,0.4-2.4,1.2c-0.1,0.2-0.3,0.2-0.4,0.2L7,10c-0.9-0.1-1.9,0.3-2.4,1.1c-0.5,0.8-0.5,1.7,0,2.5l0.8,1.2
			c0.6,0.9,1.9,1.3,2.9,0.8L9,15.1c0.3-0.1,0.6-0.1,0.9,0l1.5,0.9c0.2,0.1,0.3,0.1,0.5,0.1H12c0.5,0,1,0.3,1.2,0.7l0.7,1l0.2,0.2
			l0.9,1.1l-1.4,1.1c-0.5,0.4-0.8,0.9-1,1.5l-0.5,1.6c0,0,0,0.1-0.1,0.1L11.6,24c-0.3,0.4-0.6,0.9-0.7,1.4l-0.3-1.9
			c-0.1-0.4-0.3-0.8-0.6-1.2l-1.6-2.2c-0.1-0.1-0.2-0.3-0.2-0.4l-0.6-2c-0.3-0.9-1-1.6-1.9-1.8H5.6c-0.1,0-0.3-0.1-0.4-0.2l-1-0.9
			c-0.1-0.1-0.2-0.2-0.3-0.4c-0.5-0.9-1.4-1.4-2.5-1.4H1.3C1.8,10,3.1,7.3,5.2,5.2l0,0c0.9-0.9,1.9-1.7,3-2.3l1.5,1.2
			c0.2,0.1,0.3,0.2,0.5,0.3C10.7,4.7,11.1,5.1,11.4,5.5z M1.2,14.1c0.7-0.1,1.3,0.2,1.7,0.8c0.1,0.2,0.3,0.5,0.5,0.6l1,1
			C4.7,16.8,5,16.9,5.3,17h0.1c0.5,0.1,0.9,0.5,1,1L7,20c0.1,0.3,0.2,0.6,0.4,0.9L9.1,23c0.1,0.2,0.2,0.4,0.3,0.6l0.4,2.7
			c0.1,0.5,0.5,0.8,1,0.8l0,0c0.1,0,0.3,0,0.4-0.1c0.5-0.2,0.8-0.6,0.8-1.1c0-0.4,0.2-0.8,0.5-1.2l0.5-0.6c0.1-0.2,0.2-0.3,0.3-0.5
			l0.5-1.6c0.1-0.3,0.3-0.7,0.6-0.9l1.5-1.1c0.2-0.2,0.4-0.4,0.4-0.7c0.1-0.3,0-0.6-0.2-0.9l-1-1.1l-0.1-0.2l-0.8-1
			c-0.5-0.7-1.3-1.2-2.2-1.2l-1.5-0.9c-0.6-0.3-1.4-0.3-2,0l-0.8,0.4c-0.5,0.2-1,0.1-1.3-0.3L5.6,13c-0.2-0.4-0.2-0.8,0-1.2
			c0.3-0.4,0.8-0.6,1.2-0.6L8,11.3c0.7,0.1,1.3-0.2,1.6-0.8c0.3-0.4,0.7-0.7,1.2-0.6l0.5,0.1c0.6,0.1,1.1-0.2,1.5-0.6l0.4-0.6
			C13.9,8,13.9,7,13.4,6.3l-1-1.4c-0.4-0.6-1-1.1-1.6-1.5c-0.1-0.1-0.2-0.2-0.4-0.2L9.4,2.3c4.5-2,9.8-1.4,13.8,1.7l-0.2,0.3
			c-0.9,1-1.7,2-2.4,3.2L20,8.3c-0.3,0.5-0.2,1.1,0.1,1.5c0.3,0.3,0.7,0.6,1.2,0.6h0.2c0.8,0.1,1.4,0.6,1.6,1.4
			c0.2,0.7,0,1.5-0.5,1.9L20.1,16c-0.4,0.3-0.6,0.8-0.6,1.3v0.6c0,0.5,0.2,1,0.6,1.2c0.5,0.3,0.8,0.8,0.8,1.3l0.1,0.6
			c0.1,0.6,0.6,1.1,1.3,1.1h1.5c1,0,1.9-0.6,2.3-1.5l0.1-0.2c0.3-0.6,0.9-1,1.6-1.1c-0.7,1.9-1.8,3.7-3.2,5.1l0,0
			c-5.3,5.3-14,5.3-19.3,0c-2.6-2.6-4-6-4-9.7C1.2,14.6,1.2,14.3,1.2,14.1z M27.7,18.2c-1.1,0-2.2,0.7-2.6,1.8L25,20.2
			c-0.2,0.5-0.7,0.8-1.2,0.8h-1.5c0,0-0.1,0-0.1-0.1l-0.1-0.6c-0.1-0.9-0.6-1.7-1.3-2.2c-0.1,0-0.1-0.1-0.1-0.2v-0.6
			c0-0.2,0.1-0.3,0.2-0.4l2.5-2.2c0.9-0.8,1.2-2,0.9-3.2c-0.4-1.2-1.4-2-2.6-2.2h-0.2c-0.2,0-0.3-0.1-0.4-0.3c0,0,0-0.1,0-0.1
			L21.6,8c0.6-1.1,1.4-2.1,2.2-3L24,4.7l0.5,0.5c2.6,2.6,4,6,4,9.7c0,1.1-0.1,2.2-0.4,3.3L27.7,18.2z"/>
	</g>
</g>
</svg>
