<?xml version="1.0" encoding="utf-8"?>
<!-- Generator: Adobe Illustrator 24.0.1, SVG Export Plug-In . SVG Version: 6.00 Build 0)  -->
<svg version="1.1" id="Layer_1" xmlns="http://www.w3.org/2000/svg" xmlns:xlink="http://www.w3.org/1999/xlink" x="0px" y="0px"
	 viewBox="0 0 86.9 86.9" style="enable-background:new 0 0 86.9 86.9;" xml:space="preserve">
<style type="text/css">
	.st0{fill:#00000;}
</style>
<title>hardware</title>
<g>
	<path class="st0" d="M85.4,34.1c0.1,0,0.2,0,0.2,0c0.8-0.1,1.4-0.8,1.3-1.6c-0.1-0.8-0.8-1.4-1.6-1.3h-8.7v-7.4h8.7
		c0.1,0,0.2,0,0.2,0c0.8-0.1,1.4-0.8,1.3-1.6c-0.1-0.8-0.8-1.4-1.6-1.3h-8.7v-5c0-3.6-2.9-6.5-6.5-6.5h-4.3v-8
		c0-0.8-0.7-1.5-1.5-1.5C63.7,0,63,0.6,63,1.4v8h-8.2v-8c0-0.1,0-0.2,0-0.2c-0.1-0.8-0.8-1.4-1.6-1.3c-0.8,0.1-1.4,0.8-1.3,1.6v8
		h-7.4v-8c0-0.1,0-0.2,0-0.2c-0.1-0.8-0.8-1.4-1.6-1.3c-0.8,0.1-1.4,0.8-1.3,1.6v8h-7.5v-8c0-0.1,0-0.2,0-0.2
		c-0.1-0.8-0.8-1.4-1.6-1.3c-0.8,0.1-1.4,0.8-1.3,1.6v8h-7.4v-8c0-0.1,0-0.2,0-0.2c-0.1-0.8-0.8-1.4-1.6-1.3
		c-0.8,0.1-1.4,0.8-1.3,1.6v8h-5c-3.6,0-6.5,2.9-6.5,6.5v5h-8c-0.7,0.1-1.3,0.6-1.3,1.3c-0.1,0.8,0.5,1.5,1.3,1.6h8v7.4h-8
		c-0.7,0.1-1.3,0.6-1.3,1.3c-0.1,0.8,0.5,1.5,1.3,1.6h8v7.5h-8c-0.7,0.1-1.3,0.6-1.3,1.3c-0.1,0.8,0.5,1.5,1.3,1.6h8v7.4h-8
		c-0.7,0.1-1.3,0.6-1.3,1.3c-0.1,0.8,0.5,1.5,1.3,1.6h8V63h-8c-0.7,0.1-1.3,0.6-1.3,1.3c-0.1,0.8,0.5,1.5,1.3,1.6h8v5.7
		c0,3.6,2.9,6.5,6.5,6.5h5v7.3c0,0,0,0,0,0c0,0.8,0.7,1.4,1.5,1.4c0.8,0,1.4-0.6,1.4-1.4v-7.3h7.4v7.3v0c0,0.8,0.7,1.4,1.5,1.4
		c0.8,0,1.4-0.6,1.4-1.4v-7.3h7.5v7.3v0c0,0.8,0.7,1.4,1.5,1.4c0,0,0,0,0,0c0.8,0,1.4-0.6,1.4-1.4v-7.3h7.4v7.3
		c0,0.8,0.6,1.4,1.4,1.4c0,0,0,0,0,0c0.8,0,1.4-0.6,1.4-1.4v-7.3H63v7.3v0c0,0.8,0.7,1.4,1.5,1.4c0.8,0,1.4-0.6,1.4-1.4v-7.3h4.3
		c3.6,0,6.5-2.9,6.5-6.5v-5.7h8.7c0.1,0,0.2,0,0.2,0c0.8-0.1,1.4-0.8,1.3-1.6c-0.1-0.8-0.8-1.4-1.6-1.3h-8.7v-8.2h8.7
		c0.1,0,0.2,0,0.2,0c0.8-0.1,1.4-0.8,1.3-1.6c-0.1-0.8-0.8-1.4-1.6-1.3h-8.7v-7.4h8.7c0.1,0,0.2,0,0.2,0c0.8-0.1,1.4-0.8,1.3-1.6
		c-0.1-0.8-0.8-1.4-1.6-1.3h-8.7v-7.5H85.4z M73.8,41.6h-3.5c-0.7,0.1-1.3,0.6-1.3,1.3c-0.1,0.8,0.5,1.5,1.3,1.6h3.5v7.4h-3.5
		c-0.7,0.1-1.3,0.6-1.3,1.3c-0.1,0.8,0.5,1.5,1.3,1.6h3.5V63h-3.5c-0.7,0.1-1.3,0.6-1.3,1.3c-0.1,0.8,0.5,1.5,1.3,1.6h3.5v5.7
		c0,2-1.6,3.6-3.6,3.6h-4.3v-4.9c0-0.1,0-0.2,0-0.2c-0.1-0.8-0.8-1.4-1.6-1.3c-0.8,0.1-1.4,0.8-1.3,1.6v4.9h-8.2v-4.9
		c0-0.1,0-0.2,0-0.2c-0.1-0.8-0.8-1.4-1.6-1.3c-0.8,0.1-1.4,0.8-1.3,1.6v4.9h-7.4v-4.9c0-0.1,0-0.2,0-0.2c-0.1-0.8-0.8-1.4-1.6-1.3
		c-0.8,0.1-1.4,0.8-1.3,1.6v4.9h-7.5v-4.9c0-0.1,0-0.2,0-0.2c-0.1-0.8-0.8-1.4-1.6-1.3c-0.8,0.1-1.4,0.8-1.3,1.6v4.9h-7.4v-4.9
		c0-0.1,0-0.2,0-0.2c-0.1-0.8-0.8-1.4-1.6-1.3c-0.8,0.1-1.4,0.8-1.3,1.6v4.9h-5c-2,0-3.6-1.6-3.6-3.6v-5.7h4.2c0.1,0,0.2,0,0.2,0
		c0.8-0.1,1.4-0.8,1.3-1.6s-0.8-1.4-1.6-1.3h-4.2v-8.2h4.2c0.1,0,0.2,0,0.2,0c0.8-0.1,1.4-0.8,1.3-1.6c-0.1-0.8-0.8-1.4-1.6-1.3
		h-4.2v-7.4h4.2c0.1,0,0.2,0,0.2,0c0.8-0.1,1.4-0.8,1.3-1.6s-0.8-1.4-1.6-1.3h-4.2v-7.5h4.2c0.1,0,0.2,0,0.2,0
		c0.8-0.1,1.4-0.8,1.3-1.6c-0.1-0.8-0.8-1.4-1.6-1.3h-4.2v-7.4h4.2c0.1,0,0.2,0,0.2,0c0.8-0.1,1.4-0.8,1.3-1.6s-0.8-1.4-1.6-1.3
		h-4.2v-5c0-2,1.6-3.6,3.6-3.6h5v4.2c0,0,0,0,0,0c0,0.8,0.7,1.4,1.5,1.4c0.8,0,1.4-0.7,1.4-1.4v-4.2h7.4v4.2c0,0.8,0.7,1.4,1.5,1.4
		c0.8,0,1.4-0.6,1.4-1.4v-4.2h7.5v4.2c0,0.8,0.7,1.4,1.5,1.4c0.8,0,1.4-0.6,1.4-1.4v-4.2h7.4v4.2c0,0.8,0.6,1.4,1.4,1.4c0,0,0,0,0,0
		c0.8,0,1.5-0.6,1.5-1.4v-4.2H63v4.2c0,0.8,0.7,1.4,1.5,1.4c0,0,0,0,0,0c0.8,0,1.5-0.6,1.5-1.4v-4.2h4.3c2,0,3.6,1.6,3.6,3.6v5h-3.5
		c-0.7,0.1-1.3,0.6-1.3,1.3c-0.1,0.8,0.5,1.5,1.3,1.6h3.5v7.4h-3.5c-0.7,0.1-1.3,0.6-1.3,1.3c-0.1,0.8,0.5,1.5,1.3,1.6h3.5V41.6z"/>
	<path class="st0" d="M50.3,33.5H35.9c0,0,0,0,0,0c-1.6,0-2.9,1.3-2.9,2.9v14.7c0,0,0,0,0,0c0,1.6,1.3,2.9,2.9,2.9h14.3
		c1.6,0,2.9-1.3,2.9-2.9V36.4c0,0,0,0,0,0C53.2,34.8,51.9,33.5,50.3,33.5z M50.3,51.2H35.9V36.4h14.3V51.2z"/>
</g>
</svg>
