<svg width="116" height="90" viewBox="0 0 116 90" fill="none" xmlns="http://www.w3.org/2000/svg">
<g clip-path="url(#clip0)">
<path d="M61.6685 25.0784C44.8012 23.1001 27.4436 32.4882 16.5087 42.0954C7.42553 50.2265 0.860209 63.1729 14.1768 70.9481C30.9598 80.7061 58.3608 76.2149 75.8582 70.8683C85.2517 67.9775 93.9257 63.7323 99.5068 56.91C104.716 50.5325 105.729 41.7155 101.767 34.6401C94.0286 20.3417 74.4243 16.8375 57.3151 20.2432C40.7582 23.5052 25.2458 32.0155 14.1177 42.5184C6.69781 49.6201 -0.580646 60.6136 7.4016 69.3785C11.9385 74.2157 20.1789 76.1005 27.1441 77.0737C36.8578 78.5256 46.7744 78.1841 56.5172 76.9431C82.0714 73.4793 111.776 59.7362 109.65 35.6232C109.483 34.1252 106.73 34.0953 106.897 35.5934C108.525 54.7633 88.5686 66.8164 68.3164 72.2828C57.8231 75.0121 46.7971 76.0896 35.7872 75.6711C27.1636 75.2784 16.7141 73.9682 10.3465 68.6622C-1.11671 59.2612 14.6473 44.4693 23.1603 38.1276C36.1159 28.3926 54.375 20.5106 72.5418 21.1563C82.6338 21.5649 92.3167 25.8593 97.7487 32.801C104.449 41.2527 101.764 51.8471 93.9759 59.0944C86.9296 65.6017 75.5122 68.9194 65.5744 71.2058C54.3486 73.7774 42.0377 74.841 30.4886 73.3693C22.6056 72.3861 12.3559 69.5818 9.67716 62.6699C7.35421 56.8093 12.0111 50.5754 16.0978 46.1309C25.9411 35.6141 44.7785 25.1947 61.8293 27.1749C63.478 27.492 63.5024 25.2479 61.6685 25.0784Z" fill="#FF8A11"/>
</g>
<defs>
<clipPath id="clip0">
<rect width="105.548" height="73.0042" fill="white" transform="translate(11.8521) rotate(9.34325)"/>
</clipPath>
</defs>
</svg>
