<svg width="484" height="574" viewBox="0 0 484 574" fill="none" xmlns="http://www.w3.org/2000/svg">
<path d="M0 0H484V574H0V0Z" fill="#012FFF"/>
<path d="M0 0H484V574H0V0Z" fill="url(#paint0_linear)" fill-opacity="0.72"/>
<g clip-path="url(#clip0)">
<path d="M145.295 202.52C145.295 171.913 120.389 147 90.5032 147C59.9053 147 35 171.913 35 202.52C35 228.856 53.5011 250.921 78.4063 256.616V297.9C53.5011 302.882 35 324.948 35 351.284C35 381.891 59.9053 406.803 90.5032 406.803C121.101 406.803 146.006 381.891 146.006 351.284C146.006 324.948 127.505 302.882 102.6 297.188V255.904C126.794 250.921 145.295 228.856 145.295 202.52Z" fill="#123DFF"/>
<path d="M329.594 297.188V255.904C354.499 250.21 373 228.144 373 201.808C373 171.913 348.095 147 317.497 147C286.899 147 262.705 171.913 262.705 202.52C262.705 228.856 281.206 250.921 306.112 256.616V297.9C281.206 302.882 262.705 324.948 262.705 351.284C262.705 381.891 287.611 406.803 318.208 406.803C348.806 406.803 373.712 381.891 373.712 351.284C373 324.948 354.499 302.882 329.594 297.188Z" fill="#123DFF"/>
<path d="M259.147 269.428C259.147 238.821 234.242 213.908 203.644 213.908C173.046 213.908 148.141 238.821 148.141 269.428C148.141 295.764 166.642 317.83 191.547 323.524V364.808C166.642 370.502 148.141 392.568 148.141 418.904C148.141 449.511 173.046 474.423 203.644 474.423C234.242 474.423 259.147 449.511 259.147 418.904C259.147 392.568 240.646 370.502 215.741 364.808V323.524C240.646 317.83 259.147 295.764 259.147 269.428Z" fill="#012FFF"/>
</g>
<defs>
<linearGradient id="paint0_linear" x1="100" y1="-7.49999" x2="478" y2="562" gradientUnits="userSpaceOnUse">
<stop stop-color="#012FFF"/>
<stop offset="0.9998" stop-color="#BBC7FF" stop-opacity="0.030933"/>
<stop offset="0.9999" stop-color="#012FFF" stop-opacity="0.0156385"/>
<stop offset="1" stop-color="#012FFF"/>
</linearGradient>
<clipPath id="clip0">
<rect width="338" height="326" fill="white" transform="translate(35 147)"/>
</clipPath>
</defs>
</svg>
