<?xml version="1.0" encoding="utf-8"?>
<!-- Generator: Adobe Illustrator 24.0.1, SVG Export Plug-In . SVG Version: 6.00 Build 0)  -->
<svg version="1.1" id="Layer_1" xmlns="http://www.w3.org/2000/svg" xmlns:xlink="http://www.w3.org/1999/xlink" x="0px" y="0px"
	 viewBox="0 0 100 100" style="enable-background:new 0 0 100 100;" xml:space="preserve">
<style type="text/css">
	.st0{fill:#FFFFFF;}
</style>
<title>Iconos</title>
<g>
	<path class="st0" d="M54.6,88c-0.8,0-1.5-0.6-1.5-1.4s0.6-1.5,1.4-1.5c9.1-0.6,15.9-10.2,15.9-18.3c0-0.8,0.6-1.4,1.4-1.4
		s1.4,0.6,1.4,1.4C73.3,76.2,65.3,87.3,54.6,88L54.6,88z"/>
	<path class="st0" d="M50,7.9c0.5,0,1,0.2,1.3,0.7c17,25.6,25.6,44.6,25.6,56.6c0,14.8-12,26.8-26.8,26.8c-14.8,0-26.8-12-26.8-26.8
		c0-16.8,19.6-47.6,25.6-56.6C49,8.2,49.5,7.9,50,7.9 M50,5.1c-1.5,0-2.9,0.7-3.7,1.9c-8,12-26,41.3-26,58.3
		C20.3,81.7,33.6,95,50,95s29.7-13.3,29.7-29.7C79.7,47,61.7,19,53.7,7C52.9,5.7,51.5,5,50,5.1L50,5.1z"/>
	<path class="st0" d="M50,7.9c0.5,0,1,0.2,1.3,0.7c17,25.6,25.6,44.6,25.6,56.6c0,14.8-12,26.8-26.8,26.8c-14.8,0-26.8-12-26.8-26.8
		c0-16.8,19.6-47.6,25.6-56.6C49,8.2,49.5,7.9,50,7.9 M50,5.1c-1.5,0-2.9,0.7-3.7,1.9c-8,12-26,41.3-26,58.3
		C20.3,81.7,33.6,95,50,95s29.7-13.3,29.7-29.7C79.7,47,61.7,19,53.7,7C52.9,5.7,51.5,5,50,5.1L50,5.1z"/>
</g>
</svg>
