<?xml version="1.0" encoding="utf-8"?>
<!-- Generator: Adobe Illustrator 24.0.1, SVG Export Plug-In . SVG Version: 6.00 Build 0)  -->
<svg version="1.1" id="Layer_1" xmlns="http://www.w3.org/2000/svg" xmlns:xlink="http://www.w3.org/1999/xlink" x="0px" y="0px"
	 viewBox="0 0 100 100" style="enable-background:new 0 0 100 100;" xml:space="preserve">
<style type="text/css">
	.st0{fill:#9BBE43;}
</style>
<title>Iconos</title>
<g>
	<path class="st0" d="M23.1,93.7c-0.6,0-1.2-0.3-1.5-0.8c-3-5.4-3-11.9-0.1-17.3c0.3-0.9,1.2-1.3,2.1-1s1.3,1.2,1,2.1
		c-0.1,0.2-0.1,0.3-0.2,0.4c-2.4,4.5-2.3,9.8,0.2,14.2c0.4,0.8,0.2,1.8-0.6,2.2C23.6,93.6,23.3,93.7,23.1,93.7z"/>
	<path class="st0" d="M82.2,9.5c0.4,0.3,0.5,0.8,0.4,1.3c-5.8,28.9-13,47.7-21.1,55.9C51.3,76.6,35,76.4,25,66.2
		c-9.8-10-9.8-26,0-36c11.4-11.4,45.6-19,55.9-21.1C81.3,9,81.8,9.2,82.2,9.5 M84.2,7.5c-1-1-2.5-1.4-3.9-1.1
		C66.7,9.2,34.5,16.8,22.9,28.3c-11.2,11.2-11.1,29.3,0,40.4s29.3,11.1,40.4,0c12.5-12.4,19.3-43.7,22-57.3
		C85.6,10,85.2,8.5,84.2,7.5z"/>
	<path class="st0" d="M82.2,9.5c0.4,0.3,0.5,0.8,0.4,1.3c-5.8,28.9-13,47.7-21.1,55.9C51.3,76.6,35,76.4,25,66.2
		c-9.8-10-9.8-26,0-36c11.4-11.4,45.6-19,55.9-21.1C81.3,9,81.8,9.2,82.2,9.5 M84.2,7.5c-1-1-2.5-1.4-3.9-1.1
		C66.7,9.2,34.5,16.8,22.9,28.3c-11.2,11.2-11.1,29.3,0,40.4s29.3,11.1,40.4,0c12.5-12.4,19.3-43.7,22-57.3
		C85.6,10,85.2,8.5,84.2,7.5z"/>
	<path class="st0" d="M30.3,64.4c-0.3,0-0.6-0.1-0.9-0.2c-0.8-0.5-1-1.5-0.6-2.3l0,0c6.8-11.4,24.5-33.2,45.4-46.5
		c0.7-0.5,1.8-0.4,2.3,0.4c0.5,0.7,0.4,1.8-0.4,2.3c-0.1,0-0.1,0.1-0.2,0.1c-20.2,13-37.5,34.3-44.1,45.4
		C31.5,64.1,30.9,64.4,30.3,64.4z"/>
</g>
</svg>
