<svg width="167" height="134" viewBox="0 0 167 134" fill="none" xmlns="http://www.w3.org/2000/svg">
<line x1="3" y1="-3" x2="164" y2="-3" transform="matrix(-1 8.74228e-08 8.74228e-08 1 167 38)" stroke="#0027F1" stroke-opacity="0.09" stroke-width="6" stroke-linecap="round" stroke-dasharray="0.2 35"/>
<line x1="3" y1="-3" x2="164" y2="-3" transform="matrix(-1 8.74228e-08 8.74228e-08 1 167 6)" stroke="#0027F1" stroke-opacity="0.09" stroke-width="6" stroke-linecap="round" stroke-dasharray="0.2 35"/>
<line x1="3" y1="-3" x2="164" y2="-3" transform="matrix(-1 8.74228e-08 8.74228e-08 1 167 102)" stroke="#0027F1" stroke-opacity="0.09" stroke-width="6" stroke-linecap="round" stroke-dasharray="0.2 35"/>
<line x1="3" y1="-3" x2="164" y2="-3" transform="matrix(-1 8.74228e-08 8.74228e-08 1 167 134)" stroke="#0027F1" stroke-opacity="0.09" stroke-width="6" stroke-linecap="round" stroke-dasharray="0.2 35"/>
<line x1="3" y1="-3" x2="164" y2="-3" transform="matrix(-1 8.74228e-08 8.74228e-08 1 167 70)" stroke="#0027F1" stroke-opacity="0.09" stroke-width="6" stroke-linecap="round" stroke-dasharray="0.2 35"/>
</svg>
