<?xml version="1.0" encoding="utf-8"?>
<!-- Generator: Adobe Illustrator 24.0.1, SVG Export Plug-In . SVG Version: 6.00 Build 0)  -->
<svg version="1.1" id="Layer_1" xmlns="http://www.w3.org/2000/svg" xmlns:xlink="http://www.w3.org/1999/xlink" x="0px" y="0px"
	 viewBox="0 0 100 100" style="enable-background:new 0 0 100 100;" xml:space="preserve">
<style type="text/css">
	.st0{fill:none;}
	.st1{fill:#ffffff;}
</style>
<title>Iconos</title>
<g>
	<path class="st0" d="M51.3,8.6C51,8.1,50.5,7.9,50,7.9s-1,0.3-1.1,0.7c-6,9-25.6,39.8-25.6,56.6C23.3,80,35.3,92,50.1,92
		c14.8,0,26.8-12,26.8-26.8C76.9,53.2,68.3,34.2,51.3,8.6z M54.6,88c-0.8,0-1.5-0.6-1.5-1.4c0-0.8,0.6-1.5,1.4-1.5
		c9.1-0.6,15.9-10.2,15.9-18.3c0-0.8,0.6-1.4,1.4-1.4c0.8,0,1.4,0.6,1.4,1.4C73.3,76.2,65.3,87.3,54.6,88z"/>
	<path class="st1" d="M71.8,65.4c-0.8,0-1.4,0.6-1.4,1.4c0,8.1-6.8,17.7-15.9,18.3c-0.8,0-1.4,0.7-1.4,1.5c0,0.8,0.7,1.4,1.5,1.4
		c10.7-0.7,18.7-11.8,18.6-21.2C73.2,66,72.6,65.4,71.8,65.4z"/>
	<path class="st1" d="M53.7,7c-0.8-1.3-2.2-2-3.7-1.9c-1.5,0-2.9,0.7-3.7,1.9c-8,12-26,41.3-26,58.3C20.3,81.7,33.6,95,50,95
		s29.7-13.3,29.7-29.7C79.7,47,61.7,19,53.7,7z M50.1,92c-14.8,0-26.8-12-26.8-26.8c0-16.8,19.6-47.6,25.6-56.6
		C49,8.2,49.5,7.9,50,7.9s1,0.2,1.3,0.7c17,25.6,25.6,44.6,25.6,56.6C76.9,80,64.9,92,50.1,92z"/>
</g>
</svg>
